<svg xmlns="http://www.w3.org/2000/svg"
shape-rendering="geometricPrecision"
width="4000" height="4000" viewBox="0 0 1024 1024"><rect width="100%" height="100%" fill="#E1EDE4" />
  <metadata>null</metadata>

<path d="
M 197.82 498.039
C 197.848 497.877 197.876 497.715 197.904 497.553
C 202.232 493.419 208.221 490.557 213.173 487.204
C 223.462 480.24 234.001 473.65 244.272 466.665
C 245.279 466.822 246.183 470.242 246.571 471.135
C 248.541 475.668 250.32 480.292 252.331 484.805
C 258.691 499.086 264.333 513.793 270.195 528.291
C 272.143 533.109 273.897 538.133 276.117 542.819
C 276.501 542.8 276.259 540.122 276.254 539.804
C 276.205 536.202 276.11 532.601 276.075 528.999
C 275.926 513.762 276.53 498.473 276.099 483.246
C 278.661 481.148 281.765 479.637 284.537 477.833
C 288.438 475.294 292.196 472.526 296.116 470.022
C 296.851 473.265 296.268 477.178 296.269 480.499
C 296.27 487.832 296.252 495.166 296.25 502.5
C 296.242 523.334 296.311 544.169 296.245 565.003
C 296.223 572.169 296.259 579.335 296.257 586.502
C 296.256 589.812 295.783 593.537 296.184 596.798
C 289.696 597.205 283.131 596.526 276.635 596.823
C 274.948 593.795 273.811 590.262 272.541 587.034
C 270.653 582.236 268.633 577.473 266.641 572.715
C 259.859 556.521 252.839 540.354 246.452 523.999
C 243.916 517.506 241.072 511.137 238.504 504.654
C 237.821 502.93 237.105 501.225 236.462 499.485
C 236.203 498.784 236.024 497.919 235.342 497.563
C 231.682 498.259 228.221 501.496 225.165 503.563
C 218.997 507.734 212.697 511.685 206.466 515.753
C 204.262 517.192 202.063 518.637 199.863 520.08
C 199.42 520.37 198.074 521.654 197.716 521.208
C 198.318 513.529 197.615 505.736 197.82 498.039 Z"
opacity="1" fill="rgb(73,125,96)" fill-rule="evenodd" />
<path d="
M 216.326 522
C 216.397 521.851 216.468 521.702 216.539 521.554
C 219.69 519.12 223.27 517.294 226.555 515.059
C 227.548 514.383 229.587 512.432 230.761 512.403
C 231.887 515.62 233.353 518.881 234.634 522.062
C 235.151 523.345 236.222 524.575 236.409 525.955
C 237.242 532.108 236.599 538.796 236.597 545.001
C 236.595 556.835 236.654 568.668 236.656 580.502
C 236.658 585.939 236.192 591.559 236.549 596.971
C 229.91 596.739 223.044 596.595 216.411 596.944
C 215.671 596.137 216.237 593.137 216.231 592.003
C 216.206 587.335 216.217 582.669 216.215 578.002
C 216.206 559.352 215.869 540.642 216.326 522 Z"
opacity="1" fill="rgb(40,101,106)" fill-rule="evenodd" />
<path d="
M 254.22 460.324
C 258.791 457.899 263.218 454.478 267.523 451.578
C 272.654 448.121 278.067 445.095 283.194 441.627
C 287.629 438.627 292.03 435.412 296.595 432.625
C 297.926 433.036 299.236 434.15 300.372 434.95
C 302.266 436.286 304.266 437.482 306.188 438.778
C 312.933 443.325 319.604 447.984 326.456 452.367
C 329.504 454.317 332.397 457.173 335.763 458.548
C 335.579 453.465 335.323 447.933 335.755 442.873
C 340.335 442.795 344.917 442.854 349.502 442.861
C 351.229 442.864 353.971 442.341 355.576 442.9
C 355.826 449.867 355.431 457.002 355.439 464.002
C 355.441 466.193 355.483 468.371 355.573 470.56
C 355.607 471.393 355.377 472.155 355.729 472.921
C 361.138 475.834 366.18 479.734 371.236 483.217
C 378.242 488.044 385.757 492.259 392.563 497.364
C 393.341 499.401 392.721 502.812 392.711 505
C 392.687 510.258 393.104 515.735 392.716 520.964
C 392.48 521.195 391.647 520.346 391.371 520.134
C 390.106 519.164 388.762 518.268 387.427 517.398
C 381.582 513.592 375.647 509.917 369.875 506.003
C 353.131 494.65 336.244 483.526 319.595 472.041
C 314.276 468.371 308.969 464.628 303.551 461.106
C 301.694 459.899 299.207 457.364 297.073 456.864
C 293.929 458.258 291.16 460.541 288.284 462.403
C 282.664 466.042 277.107 469.775 271.504 473.438
C 269.323 474.864 267.128 476.276 264.919 477.658
C 264.18 478.121 262.949 479.389 262.089 479.384
C 261.451 476.121 259.647 472.864 258.323 469.831
C 256.945 466.676 255.907 463.336 254.22 460.324 Z"
opacity="1" fill="rgb(119,158,50)" fill-rule="evenodd" />
<path d="
M 306.28 476.315
C 309.062 477.294 311.829 479.879 314.246 481.59
C 319.352 485.206 324.579 488.673 329.733 492.22
C 337.942 497.87 346.339 503.332 354.726 508.717
C 358.723 511.283 363.22 513.635 366.958 516.533
C 366.689 523.342 366.771 530.186 366.756 537
C 366.75 539.686 367.403 543.158 366.755 545.749
C 366.096 546.231 365.414 546.671 364.731 547.117
C 364.709 547.794 366.26 548.906 366.806 549.396
C 368.502 550.919 370.225 552.389 371.807 554.034
C 372.328 554.576 373.269 555.251 373.345 556.049
C 373.638 559.12 373.262 562.409 373.248 565.501
C 373.216 572.166 373.225 578.833 373.18 585.498
C 373.161 588.166 373.148 590.832 373.178 593.5
C 373.19 594.529 372.881 596.19 373.231 597.137
C 367.35 596.786 361.392 597.038 355.502 597.041
C 344.502 597.046 333.503 597.044 322.504 597.052
C 317.179 597.056 311.653 597.464 306.354 597.043
C 306.575 588.05 306.235 579 306.244 570
C 306.265 548.5 306.251 527 306.267 505.499
C 306.274 495.804 305.882 485.995 306.28 476.315 Z
M 326.737 514.283
C 327.679 521.648 326.878 529.545 326.952 536.978
C 333.537 537.134 340.289 537.159 346.877 536.885
C 347.103 533.859 347.3 530.716 347.143 527.675
C 341.221 522.243 333.255 518.906 326.737 514.283 Z
M 326.762 557.428
C 326.82 564.003 326.914 570.624 326.773 577.2
C 335.266 576.074 344.174 578.319 352.661 577.042
C 353.142 576.204 352.86 574.484 352.902 573.518
C 353.046 570.179 352.96 566.829 352.906 563.484
C 352.441 562.345 350.558 561.181 349.626 560.374
C 348.72 559.589 347.647 558.383 346.55 557.895
C 344.87 557.147 342.188 557.568 340.372 557.546
C 335.837 557.491 331.301 557.36 326.762 557.428 Z"
opacity="1" fill="rgb(87,135,82)" fill-rule="evenodd" />
<path d="
M 400.757 439.19
C 405.155 439.302 409.817 439.403 414.205 439.011
C 418.164 451.869 424.022 464.232 428.703 476.844
C 430.177 480.816 432.039 484.817 433.144 488.899
C 433.675 488.872 434.094 486.626 434.25 486.133
C 435.227 483.057 436.384 480.018 437.483 476.982
C 440.313 469.17 443.514 461.477 446.462 453.707
C 448.245 449.009 449.792 443.939 452.126 439.487
C 453.042 438.819 454.875 439.187 456.009 439.202
C 459.094 439.243 462.694 439.667 465.713 439.001
C 465.799 438.91 465.305 439.705 465.222 439.849
C 464.925 440.36 464.696 440.9 464.444 441.434
C 463.756 442.894 463.124 444.388 462.529 445.89
C 460.592 450.783 458.395 455.56 456.366 460.413
C 450.284 474.953 444.896 489.772 438.802 504.306
C 434.93 504.665 430.964 504.07 427.072 504.342
C 426.068 503.199 425.667 500.8 425.07 499.367
C 423.389 495.334 421.839 491.241 420.175 487.202
C 416.328 477.863 412.353 468.554 408.7 459.136
C 406.121 452.487 403.751 445.662 400.757 439.19 Z"
opacity="1" fill="rgb(26,85,100)" fill-rule="evenodd" />
<path d="
M 407.218 527.695
C 412.711 526.758 418.765 527.404 424.333 527.397
C 431.951 527.388 440.843 526.306 447.984 529.477
C 457.592 533.742 459.879 545.855 454.074 554.115
C 452.517 556.332 450.561 556.967 448.535 558.539
C 449.474 559.414 451.43 559.883 452.623 560.486
C 454.908 561.641 456.844 563.424 458.206 565.587
C 463.74 574.376 459.773 586.514 450.039 590.24
C 445.788 591.866 441.408 591.835 436.93 591.932
C 430.982 592.062 425.004 592.129 419.049 592.042
C 415.236 591.986 411.116 591.491 407.341 592.075
C 406.769 591.135 407.255 588.663 407.252 587.503
C 407.244 583.337 407.219 579.172 407.192 575.006
C 407.092 559.236 407.283 543.464 407.218 527.695 Z
M 418.993 539.63
C 418.579 544.633 419.394 549.709 419.088 554.691
C 423.492 554.604 427.915 554.747 432.323 554.76
C 435.921 554.77 439.455 554.72 442.519 552.577
C 447.029 549.423 446.007 541.999 441.358 539.603
C 438.427 538.093 434.976 538.361 431.784 538.364
C 427.646 538.368 423.134 537.868 419.051 538.537
C 419.035 539.363 419.063 538.999 418.993 539.63 Z
M 419.02 565.619
C 418.614 570.697 418.887 576.419 419.422 581.485
C 424.665 581.193 429.988 581.474 435.241 581.519
C 439.005 581.552 443.026 581.409 446.069 578.855
C 450.512 575.126 449.007 568.291 443.967 565.892
C 439.227 563.636 432.591 564.722 427.498 564.71
C 424.798 564.705 421.677 564.295 419.046 564.907
C 419.037 565.144 419.028 565.382 419.02 565.619 Z"
opacity="1" fill="rgb(26,83,97)" fill-rule="evenodd" />
<path d="
M 471.266 544.73
C 474.991 544.492 478.746 544.607 482.479 544.635
C 482.307 552.328 482.742 560.155 482.8 567.876
C 482.831 571.964 482.653 576.561 485.721 579.726
C 490.555 584.712 498.961 581.869 501.65 576.156
C 503.197 572.867 502.678 568.865 502.687 565.33
C 502.705 558.469 502.918 551.575 502.696 544.718
C 505.378 544.369 508.154 544.404 510.855 544.416
C 511.799 544.419 513.429 544.191 514.263 544.667
C 513.665 553.858 514.307 563.287 514.33 572.5
C 514.347 578.822 513.598 585.612 514.274 591.88
C 510.406 592.411 506.283 591.723 502.372 592.003
C 501.921 589.865 502.491 587.593 502.229 585.433
C 499.813 588.072 497.152 590.43 493.743 591.671
C 485.51 594.668 475.618 591.73 472.654 582.942
C 471.124 578.406 471.35 573.708 471.312 569
C 471.248 560.943 471.725 552.771 471.266 544.73 Z"
opacity="1" fill="rgb(30,85,99)" fill-rule="evenodd" />
<path d="
M 472.371 439.029
C 472.481 438.829 472.591 438.63 472.701 438.43
C 475.291 438.209 477.907 438.339 480.505 438.343
C 481.9 438.345 483.571 438.135 484.921 438.466
C 484.715 442.074 484.875 445.76 484.81 449.365
C 480.879 449.332 476.908 449.402 472.972 449.457
C 472.263 448.986 472.523 447.684 472.529 446.881
C 472.546 444.26 472.293 441.651 472.371 439.029 Z"
opacity="1" fill="rgb(31,86,98)" fill-rule="evenodd" />
<path d="
M 472.958 456.311
C 476.38 456.263 481.155 455.407 484.427 456.516
C 483.923 468.297 484.6 480.207 484.597 492.003
C 484.596 494.977 484.62 497.953 484.605 500.928
C 484.6 501.743 484.885 503.341 484.261 503.956
C 480.58 503.698 476.754 503.836 473.065 503.939
C 472.378 498.589 472.936 492.891 472.924 487.497
C 472.901 477.103 472.791 466.704 472.958 456.311 Z"
opacity="1" fill="rgb(29,87,99)" fill-rule="evenodd" />
<path d="
M 498.251 456.263
C 501.179 456.14 504.075 456.233 507.005 456.223
C 507.739 456.22 509.425 455.849 509.917 456.396
C 509.763 459.491 510.417 462.791 509.998 465.852
C 510.784 465.737 511.957 462.7 512.464 462.015
C 514.869 458.761 517.937 456.12 522.063 455.427
C 522.849 455.295 525.472 454.781 525.896 455.427
C 526.081 459.267 525.637 463.411 526.168 467.201
C 520.358 465.893 513.78 470.885 511.491 475.79
C 509.6 479.841 509.861 484.141 509.873 488.507
C 509.888 493.735 509.836 498.964 509.845 504.19
C 507.081 504.365 504.261 504.177 501.49 504.18
C 500.7 504.181 498.953 504.594 498.337 504.155
C 498.47 494.439 498.31 484.715 498.332 474.998
C 498.345 468.8 498.752 462.442 498.251 456.263 Z"
opacity="1" fill="rgb(27,85,97)" fill-rule="evenodd" />
<path d="
M 527.765 526.28
C 531.807 526.222 536.148 525.856 540.162 526.345
C 540.283 529.998 539.988 533.738 540.24 537.373
C 536.198 538.136 531.877 537.145 527.802 537.624
C 527.919 533.856 527.995 530.045 527.765 526.28 Z"
opacity="1" fill="rgb(27,84,99)" fill-rule="evenodd" />
<path d="
M 528.153 544.715
C 532.036 544.624 535.904 544.592 539.789 544.656
C 539.421 547.694 539.72 550.942 539.723 554.003
C 539.729 559.837 539.721 565.67 539.735 571.504
C 539.746 576.004 539.756 580.503 539.753 585.003
C 539.752 587.187 539.427 589.697 539.746 591.841
C 536 592.237 532.167 591.651 528.404 591.978
C 527.895 586.904 528.279 581.602 528.271 576.502
C 528.254 565.909 528.369 555.305 528.153 544.715 Z"
opacity="1" fill="rgb(32,88,100)" fill-rule="evenodd" />
<path d="
M 530.936 487.593
C 531.366 485.625 531.848 483.748 532.916 482.007
C 537.466 474.589 548.393 474.285 556.019 475.427
C 557.955 475.717 560.163 476.739 562.076 476.768
C 561.768 474.399 561.958 472.087 560.701 469.941
C 559.081 467.177 555.954 465.917 552.88 465.652
C 547.312 465.171 542.95 466.823 537.916 468.912
C 536.748 467.138 535.963 464.615 535.243 462.608
C 534.979 461.875 534.514 461.149 534.485 460.382
C 537.991 457.757 542.628 456.413 546.929 455.842
C 550.088 455.423 553.352 455.465 556.517 455.8
C 558.491 456.009 560.416 456.453 562.267 457.169
C 570.947 460.524 573.251 468.634 573.292 477.154
C 573.32 483.102 573.276 489.052 573.271 495.001
C 573.268 497.963 572.992 501.103 573.317 504.045
C 573.324 504.193 570.867 504.119 570.498 504.124
C 567.618 504.159 564.637 503.818 561.773 504.116
C 561.049 502.852 562.003 500.336 561.655 498.834
C 559.327 500.865 557.128 502.701 554.168 503.729
C 545.458 506.754 533.244 503.754 531.131 493.575
C 530.723 491.612 530.68 489.579 530.936 487.593 Z
M 541.952 489.112
C 541.308 496.487 550.648 497.335 555.709 495.395
C 558.104 494.476 561.029 492.485 561.723 489.839
C 562.217 487.958 561.931 485.493 561.888 483.559
C 558.468 482.349 554.815 482.258 551.23 482.347
C 548.655 482.411 546.117 482.668 544.144 484.513
C 542.781 485.789 542.35 487.354 541.952 489.112 Z"
opacity="1" fill="rgb(29,85,98)" fill-rule="evenodd" />
<path d="
M 553.98 527.603
C 554.084 526.9 553.954 527.292 554.573 526.517
C 557.217 526.344 559.861 526.429 562.509 526.375
C 563.104 526.363 564.901 526.086 565.281 526.536
C 565.561 531.324 565.298 536.202 565.323 541.001
C 565.384 552.707 565.51 564.415 565.565 576.114
C 565.591 581.412 565.244 586.761 565.471 592.032
C 561.715 592.044 557.909 591.944 554.152 592.15
C 553.293 581.574 554.023 570.607 554.052 559.994
C 554.081 549.26 553.413 538.31 553.98 527.603 Z"
opacity="1" fill="rgb(33,86,101)" fill-rule="evenodd" />
<path d="
M 575.964 566.611
C 576.833 559.93 578.158 554.318 582.952 549.222
C 588.519 543.305 597.555 541.389 604.971 544.911
C 608.298 546.491 610.859 549.086 612.995 552.025
C 613.36 549.965 612.662 547.157 612.641 545.005
C 612.578 538.763 612.408 532.466 612.678 526.23
C 616.519 525.897 620.378 525.901 624.229 526.104
C 624.631 527.955 624.326 530.102 624.33 531.998
C 624.338 535.665 624.36 539.333 624.34 543
C 624.281 553.833 624.313 564.667 624.286 575.501
C 624.274 580.796 623.569 586.639 624.256 591.876
C 620.532 592.493 616.223 591.931 612.441 591.986
C 612.317 589.885 612.769 587.462 612.12 585.439
C 610.793 586.402 609.94 587.78 608.707 588.839
C 606.651 590.606 604.012 591.867 601.376 592.473
C 599.472 592.91 597.44 592.997 595.494 592.892
C 582.413 592.188 575.239 578.553 575.964 566.611 Z
M 587.954 564.598
C 586.919 570.381 588.706 577.131 593.674 580.627
C 601.193 585.918 610.787 580.369 612.407 572.012
C 613.367 567.06 612.778 560.312 608.803 556.69
C 601.04 549.615 589.69 554.898 587.954 564.598 Z"
opacity="1" fill="rgb(28,85,99)" fill-rule="evenodd" />
<path d="
M 580.482 457.095
C 580.563 456.518 580.519 456.845 580.612 456.113
C 582.589 455.189 585.12 456.427 587.155 455.852
C 587.279 451.646 587.302 447.348 587.08 443.149
C 587.758 442.562 589.549 442.863 590.452 442.871
C 593.203 442.893 595.975 443.081 598.713 442.94
C 598.822 447.32 598.849 451.715 598.876 456.097
C 602.522 456.935 606.844 455.874 610.586 456.201
C 610.636 458.531 610.67 460.867 610.666 463.201
C 610.664 464.089 610.83 465.203 610.451 466.031
C 606.567 466.061 602.621 465.896 598.747 466.193
C 599.002 472.775 598.68 479.415 598.725 486.005
C 598.744 488.675 598.889 492.347 601.727 493.678
C 603.176 494.358 605.502 494.362 607.002 493.89
C 607.774 493.647 609.294 492.544 610.011 492.803
C 610.51 494.741 610.205 497.013 610.255 499.004
C 610.28 500.026 610.613 501.264 610.304 502.246
C 607.901 503.321 605.678 504.405 603.02 504.729
C 596.339 505.543 589.643 502.874 587.847 495.882
C 586.993 492.561 587.29 488.899 587.291 485.5
C 587.293 479.064 587.571 472.543 587.17 466.12
C 585.089 466.17 582.815 466.351 580.771 465.918
C 580.423 463.129 580.285 459.897 580.482 457.095 Z"
opacity="1" fill="rgb(32,85,97)" fill-rule="evenodd" />
<path d="
M 616.277 497.582
C 617.894 494.973 619.074 492.04 620.813 489.522
C 622.725 490.058 624.462 491.284 626.229 492.176
C 629.997 494.078 634.239 495.445 638.489 494.9
C 642.162 494.428 646.255 490.614 642.386 487.193
C 640.64 485.649 637.909 485.109 635.731 484.454
C 629.917 482.704 622.46 481.347 619.659 475.209
C 615.914 467.003 621.165 458.712 629.338 456.298
C 637.561 453.87 647.416 456.059 654.794 460.026
C 653.416 463.03 651.755 465.923 650.45 468.962
C 647.627 468.616 644.89 466.419 642.076 465.701
C 639.103 464.944 635.004 463.962 632.081 465.335
C 629.699 466.454 628.699 469.616 630.882 471.493
C 632.764 473.112 635.445 473.63 637.75 474.351
C 643.532 476.159 650.738 477.93 653.85 483.696
C 658.646 492.585 651.828 502.222 642.862 504.073
C 635.683 505.556 628.757 504.144 622.119 501.297
C 620.07 500.418 618.271 498.88 616.248 498.067
C 616.258 497.906 616.267 497.744 616.277 497.582 Z"
opacity="1" fill="rgb(32,86,98)" fill-rule="evenodd" />
<path d="
M 631.992 533.615
C 632.23 531.654 631.823 529.65 632.179 527.706
C 649.345 527.735 666.596 527.914 683.764 527.624
C 683.399 530.835 683.152 535.513 683.786 538.682
C 677.314 539.102 670.778 538.364 664.303 538.789
C 663.845 542.838 664.135 547.017 664.12 551.087
C 664.091 559.224 664.203 567.361 664.181 575.499
C 664.17 579.333 664.153 583.167 664.162 587.001
C 664.165 588.459 663.786 590.797 664.248 592.146
C 661.438 592.067 658.609 592.049 655.796 592.065
C 654.722 592.071 653.264 592.447 652.254 592.126
C 652.952 579.172 652.279 565.98 652.241 553.004
C 652.232 549.608 652.21 546.212 652.183 542.816
C 652.175 541.832 652.583 539.731 652.043 538.904
C 645.463 538.345 638.768 538.992 632.167 538.617
C 631.589 537.201 631.896 535.125 631.992 533.615 Z"
opacity="1" fill="rgb(30,87,98)" fill-rule="evenodd" />
<path d="
M 675.956 566.609
C 676.739 560.222 678.799 554.23 683.573 549.664
C 692.329 541.29 706.938 540.875 715.447 549.913
C 719.7 554.431 721.945 560.389 722.191 566.55
C 722.242 567.814 722.684 571.484 721.56 572.379
C 718.317 572.801 714.774 572.32 711.502 572.329
C 703.562 572.35 695.605 572.166 687.671 572.306
C 688.553 581.631 699.493 585.03 707.334 582.233
C 709.631 581.414 711.433 579.87 713.086 578.134
C 714.429 578.827 715.421 580.369 716.463 581.442
C 717.572 582.584 719.08 583.643 719.959 584.971
C 711.319 594.541 694.652 595.627 684.691 587.619
C 678.523 582.659 675.414 574.411 675.956 566.609 Z
M 687.504 564.137
C 687.469 564.651 687.409 564.443 687.58 564.784
C 691.171 564.526 694.896 564.833 698.502 564.852
C 702.921 564.875 707.409 564.643 711.789 565.102
C 710.529 561.071 709.682 557.199 705.912 554.655
C 699.453 550.295 690.926 553.732 688.054 560.649
C 687.594 561.759 687.668 562.97 687.504 564.137 Z"
opacity="1" fill="rgb(29,84,97)" fill-rule="evenodd" />
<path d="
M 728.941 564.094
C 731.476 549.361 745.921 539.819 760.499 544.075
C 763.835 545.049 767.144 546.804 769.723 549.146
C 770.454 549.81 771.501 550.483 771.934 551.382
C 771.558 553.035 769.994 553.807 768.825 554.869
C 767.369 556.192 766.245 557.638 764.614 558.784
C 761.97 556.803 760.626 554.41 757.065 553.742
C 754.93 553.341 752.649 553.224 750.52 553.708
C 735.967 557.017 737.557 579.892 751.727 582.443
C 753.791 582.815 755.872 582.608 757.887 582.077
C 760.717 581.333 762.841 579.473 764.955 577.564
C 767.021 578.857 768.501 580.852 770.396 582.357
C 770.964 582.808 772.385 583.595 772.371 584.378
C 770.951 586.604 768.272 588.183 766.054 589.497
C 757.482 594.575 745.233 593.879 737.484 587.512
C 730.694 581.931 727.835 572.619 728.941 564.094 Z"
opacity="1" fill="rgb(28,84,97)" fill-rule="evenodd" />
<path d="
M 780.878 526.93
C 780.937 526.777 780.996 526.623 781.055 526.47
C 784.864 526.115 788.778 526.177 792.601 526.258
C 792.859 534.69 793.025 543.347 792.684 551.784
C 793.093 551.961 793.851 550.105 794.053 549.787
C 794.727 548.726 795.761 547.799 796.724 547.004
C 800.087 544.229 804.438 543.13 808.755 543.446
C 810.803 543.596 812.88 543.887 814.809 544.626
C 825.774 548.828 824.466 561.51 824.457 571.006
C 824.454 573.673 824.452 576.34 824.452 579.007
C 824.452 583.275 824.615 587.554 824.59 591.814
C 820.822 592.229 816.821 591.737 813.02 591.879
C 812.48 591.447 812.709 590.345 812.723 589.666
C 812.769 587.447 812.737 585.225 812.722 583.006
C 812.689 578.063 812.67 573.12 812.685 568.178
C 812.697 564.612 812.902 560.876 810.947 557.726
C 806.531 550.61 796.599 553.73 793.434 560.17
C 792.041 563.005 792.71 566.924 792.73 570.003
C 792.762 574.836 792.724 579.668 792.721 584.5
C 792.72 586.861 792.407 589.533 792.799 591.856
C 789.036 591.935 785.274 591.731 781.512 591.894
C 780.728 591.299 781.149 588.808 781.15 587.827
C 781.154 583.885 781.106 579.943 781.082 576.001
C 780.983 559.675 780.378 543.246 780.878 526.93 Z"
opacity="1" fill="rgb(31,87,98)" fill-rule="evenodd" />

</svg>